<?xml version="1.0" encoding="UTF-8" standalone="no"?>
<!-- Created with Inkscape (http://www.inkscape.org/) -->

<svg
   xmlns:dc="http://purl.org/dc/elements/1.1/"
   xmlns:cc="http://creativecommons.org/ns#"
   xmlns:rdf="http://www.w3.org/1999/02/22-rdf-syntax-ns#"
   xmlns:svg="http://www.w3.org/2000/svg"
   xmlns="http://www.w3.org/2000/svg"
   xmlns:sodipodi="http://sodipodi.sourceforge.net/DTD/sodipodi-0.dtd"
   xmlns:inkscape="http://www.inkscape.org/namespaces/inkscape"
   width="744.09448819"
   height="1052.3622047"
   id="svg2"
   version="1.1"
   inkscape:version="0.91 r13725"
   sodipodi:docname="architecture2015_0.svg"
   inkscape:export-filename="/home/proycon/work/clam/docs/architecture.png"
   inkscape:export-xdpi="90"
   inkscape:export-ydpi="90">
  <defs
     id="defs4">
    <marker
       inkscape:stockid="EmptyTriangleInL"
       orient="auto"
       refY="0.0"
       refX="0.0"
       id="EmptyTriangleInL"
       style="overflow:visible"
       inkscape:isstock="true">
      <path
         id="path6165"
         d="M 5.77,0.0 L -2.88,5.0 L -2.88,-5.0 L 5.77,0.0 z "
         style="fill-rule:evenodd;fill:#ff827f;stroke:#da1000;stroke-width:1pt;stroke-opacity:1;fill-opacity:1"
         transform="scale(-0.8) translate(-6,0)" />
    </marker>
    <marker
       inkscape:stockid="EmptyTriangleOutL"
       orient="auto"
       refY="0.0"
       refX="0.0"
       id="EmptyTriangleOutL"
       style="overflow:visible"
       inkscape:isstock="true">
      <path
         id="path6174"
         d="M 5.77,0.0 L -2.88,5.0 L -2.88,-5.0 L 5.77,0.0 z "
         style="fill-rule:evenodd;fill:#ff827f;stroke:#da1000;stroke-width:1pt;stroke-opacity:1;fill-opacity:1"
         transform="scale(0.8) translate(-6,0)" />
    </marker>
    <marker
       inkscape:stockid="Arrow1Lstart"
       orient="auto"
       refY="0.0"
       refX="0.0"
       id="Arrow1Lstart"
       style="overflow:visible"
       inkscape:isstock="true">
      <path
         id="path6014"
         d="M 0.0,0.0 L 5.0,-5.0 L -12.5,0.0 L 5.0,5.0 L 0.0,0.0 z "
         style="fill-rule:evenodd;stroke:#da1000;stroke-width:1pt;stroke-opacity:1;fill:#008000;fill-opacity:1"
         transform="scale(0.8) translate(12.5,0)" />
    </marker>
    <marker
       inkscape:stockid="Arrow1Mstart"
       orient="auto"
       refY="0.0"
       refX="0.0"
       id="Arrow1Mstart"
       style="overflow:visible">
      <path
         id="path3733"
         d="M 0.0,0.0 L 5.0,-5.0 L -12.5,0.0 L 5.0,5.0 L 0.0,0.0 z "
         style="fill-rule:evenodd;stroke:#000000;stroke-width:1.0pt;marker-start:none"
         transform="scale(0.4) translate(10,0)" />
    </marker>
    <marker
       inkscape:stockid="Arrow2Mstart"
       orient="auto"
       refY="0.0"
       refX="0.0"
       id="Arrow2Mstart"
       style="overflow:visible">
      <path
         id="path3751"
         style="font-size:12.0;fill-rule:evenodd;stroke-width:0.62500000;stroke-linejoin:round"
         d="M 8.7185878,4.0337352 L -2.2072895,0.016013256 L 8.7185884,-4.0017078 C 6.9730900,-1.6296469 6.9831476,1.6157441 8.7185878,4.0337352 z "
         transform="scale(0.6) translate(0,0)" />
    </marker>
    <marker
       inkscape:stockid="Arrow2Mend"
       orient="auto"
       refY="0.0"
       refX="0.0"
       id="Arrow2Mend"
       style="overflow:visible;">
      <path
         id="path3754"
         style="font-size:12.0;fill-rule:evenodd;stroke-width:0.62500000;stroke-linejoin:round;"
         d="M 8.7185878,4.0337352 L -2.2072895,0.016013256 L 8.7185884,-4.0017078 C 6.9730900,-1.6296469 6.9831476,1.6157441 8.7185878,4.0337352 z "
         transform="scale(0.6) rotate(180) translate(0,0)" />
    </marker>
    <marker
       inkscape:stockid="Arrow1Lend"
       orient="auto"
       refY="0.0"
       refX="0.0"
       id="Arrow1Lend"
       style="overflow:visible;">
      <path
         id="path3730"
         d="M 0.0,0.0 L 5.0,-5.0 L -12.5,0.0 L 5.0,5.0 L 0.0,0.0 z "
         style="fill-rule:evenodd;stroke:#000000;stroke-width:1.0pt;marker-start:none;"
         transform="scale(0.8) rotate(180) translate(12.5,0)" />
    </marker>
    <inkscape:perspective
       sodipodi:type="inkscape:persp3d"
       inkscape:vp_x="0 : 526.18109 : 1"
       inkscape:vp_y="0 : 1000 : 0"
       inkscape:vp_z="744.09448 : 526.18109 : 1"
       inkscape:persp3d-origin="372.04724 : 350.78739 : 1"
       id="perspective10" />
    <inkscape:perspective
       id="perspective2875"
       inkscape:persp3d-origin="0.5 : 0.33333333 : 1"
       inkscape:vp_z="1 : 0.5 : 1"
       inkscape:vp_y="0 : 1000 : 0"
       inkscape:vp_x="0 : 0.5 : 1"
       sodipodi:type="inkscape:persp3d" />
    <inkscape:perspective
       id="perspective2855"
       inkscape:persp3d-origin="0.5 : 0.33333333 : 1"
       inkscape:vp_z="1 : 0.5 : 1"
       inkscape:vp_y="0 : 1000 : 0"
       inkscape:vp_x="0 : 0.5 : 1"
       sodipodi:type="inkscape:persp3d" />
    <inkscape:perspective
       id="perspective2859"
       inkscape:persp3d-origin="0.5 : 0.33333333 : 1"
       inkscape:vp_z="1 : 0.5 : 1"
       inkscape:vp_y="0 : 1000 : 0"
       inkscape:vp_x="0 : 0.5 : 1"
       sodipodi:type="inkscape:persp3d" />
    <inkscape:perspective
       id="perspective2859-8"
       inkscape:persp3d-origin="0.5 : 0.33333333 : 1"
       inkscape:vp_z="1 : 0.5 : 1"
       inkscape:vp_y="0 : 1000 : 0"
       inkscape:vp_x="0 : 0.5 : 1"
       sodipodi:type="inkscape:persp3d" />
    <inkscape:perspective
       id="perspective2859-6"
       inkscape:persp3d-origin="0.5 : 0.33333333 : 1"
       inkscape:vp_z="1 : 0.5 : 1"
       inkscape:vp_y="0 : 1000 : 0"
       inkscape:vp_x="0 : 0.5 : 1"
       sodipodi:type="inkscape:persp3d" />
    <inkscape:perspective
       id="perspective2930"
       inkscape:persp3d-origin="0.5 : 0.33333333 : 1"
       inkscape:vp_z="1 : 0.5 : 1"
       inkscape:vp_y="0 : 1000 : 0"
       inkscape:vp_x="0 : 0.5 : 1"
       sodipodi:type="inkscape:persp3d" />
    <inkscape:perspective
       id="perspective4601"
       inkscape:persp3d-origin="0.5 : 0.33333333 : 1"
       inkscape:vp_z="1 : 0.5 : 1"
       inkscape:vp_y="0 : 1000 : 0"
       inkscape:vp_x="0 : 0.5 : 1"
       sodipodi:type="inkscape:persp3d" />
    <marker
       inkscape:stockid="Arrow2Mend"
       orient="auto"
       refY="0"
       refX="0"
       id="Arrow2Mend-4"
       style="overflow:visible">
      <path
         id="path3754-1"
         style="font-size:12px;fill-rule:evenodd;stroke-width:0.625;stroke-linejoin:round"
         d="M 8.7185878,4.0337352 -2.2072895,0.01601326 8.7185884,-4.0017078 c -1.7454984,2.3720609 -1.7354408,5.6174519 -6e-7,8.035443 z"
         transform="scale(-0.6,-0.6)" />
    </marker>
    <inkscape:perspective
       id="perspective5975"
       inkscape:persp3d-origin="0.5 : 0.33333333 : 1"
       inkscape:vp_z="1 : 0.5 : 1"
       inkscape:vp_y="0 : 1000 : 0"
       inkscape:vp_x="0 : 0.5 : 1"
       sodipodi:type="inkscape:persp3d" />
    <marker
       inkscape:stockid="Arrow2Mstart"
       orient="auto"
       refY="0"
       refX="0"
       id="Arrow2Mstart-5"
       style="overflow:visible">
      <path
         id="path3751-3"
         style="font-size:12px;fill-rule:evenodd;stroke-width:0.625;stroke-linejoin:round"
         d="M 8.7185878,4.0337352 -2.2072895,0.01601326 8.7185884,-4.0017078 c -1.7454984,2.3720609 -1.7354408,5.6174519 -6e-7,8.035443 z"
         transform="scale(0.6,0.6)" />
    </marker>
    <inkscape:perspective
       id="perspective6003"
       inkscape:persp3d-origin="0.5 : 0.33333333 : 1"
       inkscape:vp_z="1 : 0.5 : 1"
       inkscape:vp_y="0 : 1000 : 0"
       inkscape:vp_x="0 : 0.5 : 1"
       sodipodi:type="inkscape:persp3d" />
    <inkscape:perspective
       id="perspective6224"
       inkscape:persp3d-origin="0.5 : 0.33333333 : 1"
       inkscape:vp_z="1 : 0.5 : 1"
       inkscape:vp_y="0 : 1000 : 0"
       inkscape:vp_x="0 : 0.5 : 1"
       sodipodi:type="inkscape:persp3d" />
    <inkscape:perspective
       id="perspective6446"
       inkscape:persp3d-origin="0.5 : 0.33333333 : 1"
       inkscape:vp_z="1 : 0.5 : 1"
       inkscape:vp_y="0 : 1000 : 0"
       inkscape:vp_x="0 : 0.5 : 1"
       sodipodi:type="inkscape:persp3d" />
    <marker
       inkscape:stockid="Arrow2Mend"
       orient="auto"
       refY="0"
       refX="0"
       id="Arrow2Mend-4-3"
       style="overflow:visible">
      <path
         id="path3754-1-6"
         style="font-size:12px;fill-rule:evenodd;stroke-width:0.625;stroke-linejoin:round"
         d="M 8.7185878,4.0337352 -2.2072895,0.01601326 8.7185884,-4.0017078 c -1.7454984,2.3720609 -1.7354408,5.6174519 -6e-7,8.035443 z"
         transform="scale(-0.6,-0.6)" />
    </marker>
    <inkscape:perspective
       id="perspective6474"
       inkscape:persp3d-origin="0.5 : 0.33333333 : 1"
       inkscape:vp_z="1 : 0.5 : 1"
       inkscape:vp_y="0 : 1000 : 0"
       inkscape:vp_x="0 : 0.5 : 1"
       sodipodi:type="inkscape:persp3d" />
    <marker
       inkscape:stockid="Arrow2Mend"
       orient="auto"
       refY="0"
       refX="0"
       id="Arrow2Mend-9"
       style="overflow:visible">
      <path
         id="path3754-9"
         style="font-size:12px;fill-rule:evenodd;stroke-width:0.625;stroke-linejoin:round"
         d="M 8.7185878,4.0337352 -2.2072895,0.01601326 8.7185884,-4.0017078 c -1.7454984,2.3720609 -1.7354408,5.6174519 -6e-7,8.035443 z"
         transform="scale(-0.6,-0.6)" />
    </marker>
    <inkscape:perspective
       id="perspective6502"
       inkscape:persp3d-origin="0.5 : 0.33333333 : 1"
       inkscape:vp_z="1 : 0.5 : 1"
       inkscape:vp_y="0 : 1000 : 0"
       inkscape:vp_x="0 : 0.5 : 1"
       sodipodi:type="inkscape:persp3d" />
    <inkscape:perspective
       id="perspective6534"
       inkscape:persp3d-origin="0.5 : 0.33333333 : 1"
       inkscape:vp_z="1 : 0.5 : 1"
       inkscape:vp_y="0 : 1000 : 0"
       inkscape:vp_x="0 : 0.5 : 1"
       sodipodi:type="inkscape:persp3d" />
    <inkscape:perspective
       id="perspective6559"
       inkscape:persp3d-origin="0.5 : 0.33333333 : 1"
       inkscape:vp_z="1 : 0.5 : 1"
       inkscape:vp_y="0 : 1000 : 0"
       inkscape:vp_x="0 : 0.5 : 1"
       sodipodi:type="inkscape:persp3d" />
    <inkscape:perspective
       id="perspective6612"
       inkscape:persp3d-origin="0.5 : 0.33333333 : 1"
       inkscape:vp_z="1 : 0.5 : 1"
       inkscape:vp_y="0 : 1000 : 0"
       inkscape:vp_x="0 : 0.5 : 1"
       sodipodi:type="inkscape:persp3d" />
    <inkscape:perspective
       id="perspective2910"
       inkscape:persp3d-origin="0.5 : 0.33333333 : 1"
       inkscape:vp_z="1 : 0.5 : 1"
       inkscape:vp_y="0 : 1000 : 0"
       inkscape:vp_x="0 : 0.5 : 1"
       sodipodi:type="inkscape:persp3d" />
    <marker
       inkscape:stockid="Arrow2Mend"
       orient="auto"
       refY="0"
       refX="0"
       id="Arrow2Mend-4-9"
       style="overflow:visible">
      <path
         id="path3754-1-7"
         style="font-size:12px;fill-rule:evenodd;stroke-width:0.625;stroke-linejoin:round"
         d="M 8.7185878,4.0337352 -2.2072895,0.01601326 8.7185884,-4.0017078 c -1.7454984,2.3720609 -1.7354408,5.6174519 -6e-7,8.035443 z"
         transform="scale(-0.6,-0.6)" />
    </marker>
    <inkscape:perspective
       id="perspective2938"
       inkscape:persp3d-origin="0.5 : 0.33333333 : 1"
       inkscape:vp_z="1 : 0.5 : 1"
       inkscape:vp_y="0 : 1000 : 0"
       inkscape:vp_x="0 : 0.5 : 1"
       sodipodi:type="inkscape:persp3d" />
    <marker
       inkscape:stockid="Arrow2Mend"
       orient="auto"
       refY="0"
       refX="0"
       id="Arrow2Mend-4-2"
       style="overflow:visible">
      <path
         id="path3754-1-5"
         style="font-size:12px;fill-rule:evenodd;stroke-width:0.625;stroke-linejoin:round"
         d="M 8.7185878,4.0337352 -2.2072895,0.01601326 8.7185884,-4.0017078 c -1.7454984,2.3720609 -1.7354408,5.6174519 -6e-7,8.035443 z"
         transform="scale(-0.6,-0.6)" />
    </marker>
    <marker
       inkscape:stockid="EmptyTriangleInL"
       orient="auto"
       refY="0"
       refX="0"
       id="EmptyTriangleInL-0"
       style="overflow:visible"
       inkscape:isstock="true">
      <path
         inkscape:connector-curvature="0"
         id="path6165-0"
         d="m 5.77,0 -8.65,5 0,-10 8.65,5 z"
         style="fill:#ff827f;fill-opacity:1;fill-rule:evenodd;stroke:#da1000;stroke-width:1pt;stroke-opacity:1"
         transform="matrix(-0.8,0,0,-0.8,4.8,0)" />
    </marker>
    <marker
       inkscape:stockid="EmptyTriangleInL"
       orient="auto"
       refY="0"
       refX="0"
       id="EmptyTriangleInL-9"
       style="overflow:visible"
       inkscape:isstock="true">
      <path
         inkscape:connector-curvature="0"
         id="path6165-08"
         d="m 5.77,0 -8.65,5 0,-10 8.65,5 z"
         style="fill:#ff827f;fill-opacity:1;fill-rule:evenodd;stroke:#da1000;stroke-width:1pt;stroke-opacity:1"
         transform="matrix(-0.8,0,0,-0.8,4.8,0)" />
    </marker>
    <marker
       inkscape:stockid="EmptyTriangleInL"
       orient="auto"
       refY="0"
       refX="0"
       id="EmptyTriangleInL-2"
       style="overflow:visible"
       inkscape:isstock="true">
      <path
         inkscape:connector-curvature="0"
         id="path6165-9"
         d="m 5.77,0 -8.65,5 0,-10 8.65,5 z"
         style="fill:#ff827f;fill-opacity:1;fill-rule:evenodd;stroke:#da1000;stroke-width:1pt;stroke-opacity:1"
         transform="matrix(-0.8,0,0,-0.8,4.8,0)" />
    </marker>
    <marker
       inkscape:stockid="EmptyTriangleOutL"
       orient="auto"
       refY="0"
       refX="0"
       id="EmptyTriangleOutL-4"
       style="overflow:visible"
       inkscape:isstock="true">
      <path
         inkscape:connector-curvature="0"
         id="path6174-2"
         d="m 5.77,0 -8.65,5 0,-10 8.65,5 z"
         style="fill:#ff827f;fill-opacity:1;fill-rule:evenodd;stroke:#da1000;stroke-width:1pt;stroke-opacity:1"
         transform="matrix(0.8,0,0,0.8,-4.8,0)" />
    </marker>
    <marker
       inkscape:stockid="EmptyTriangleInL"
       orient="auto"
       refY="0"
       refX="0"
       id="EmptyTriangleInL-2-2"
       style="overflow:visible"
       inkscape:isstock="true">
      <path
         inkscape:connector-curvature="0"
         id="path6165-9-6"
         d="m 5.77,0 -8.65,5 0,-10 8.65,5 z"
         style="fill:#ff827f;fill-opacity:1;fill-rule:evenodd;stroke:#da1000;stroke-width:1pt;stroke-opacity:1"
         transform="matrix(-0.8,0,0,-0.8,4.8,0)" />
    </marker>
  </defs>
  <sodipodi:namedview
     id="base"
     pagecolor="#ffffff"
     bordercolor="#666666"
     borderopacity="1.0"
     inkscape:pageopacity="0.0"
     inkscape:pageshadow="2"
     inkscape:zoom="1.4"
     inkscape:cx="417.19957"
     inkscape:cy="783.66935"
     inkscape:document-units="px"
     inkscape:current-layer="layer1"
     showgrid="false"
     inkscape:window-width="3812"
     inkscape:window-height="2096"
     inkscape:window-x="10"
     inkscape:window-y="46"
     inkscape:window-maximized="0" />
  <metadata
     id="metadata7">
    <rdf:RDF>
      <cc:Work
         rdf:about="">
        <dc:format>image/svg+xml</dc:format>
        <dc:type
           rdf:resource="http://purl.org/dc/dcmitype/StillImage" />
        <dc:title></dc:title>
      </cc:Work>
    </rdf:RDF>
  </metadata>
  <g
     inkscape:label="Livello 1"
     inkscape:groupmode="layer"
     id="layer1">
    <ellipse
       style="color:#000000;display:inline;overflow:visible;visibility:visible;opacity:1;fill:#ffe680;fill-opacity:1;stroke:#000000;stroke-width:1.81902897;stroke-linecap:butt;stroke-linejoin:miter;stroke-miterlimit:4;stroke-dasharray:1.81902902, 87.31339266;stroke-dashoffset:0;stroke-opacity:1;marker:none;enable-background:accumulate"
       id="path4536-5"
       cx="376.28183"
       cy="183.63101"
       rx="262.43015"
       ry="148.78799" />
    <ellipse
       style="color:#000000;display:inline;overflow:visible;visibility:visible;opacity:1;fill:#552200;fill-opacity:1;stroke:#000000;stroke-width:1.47259033;stroke-linecap:butt;stroke-linejoin:miter;stroke-miterlimit:4;stroke-dasharray:1.47259036, 70.68433707;stroke-dashoffset:0;stroke-opacity:1;marker:none;enable-background:accumulate"
       id="path4536"
       cx="376.28183"
       cy="201.81377"
       rx="208.56021"
       ry="122.69724" />
    <ellipse
       style="color:#000000;display:inline;overflow:visible;visibility:visible;opacity:1;fill:#ff9955;fill-opacity:1;stroke:none;stroke-width:1.39999998;stroke-linecap:butt;stroke-linejoin:miter;stroke-miterlimit:4;stroke-dasharray:1.39999998, 67.19999886;stroke-dashoffset:0;stroke-opacity:1;marker:none;enable-background:accumulate"
       id="path3654"
       cx="374.26151"
       cy="229.59296"
       rx="148.49242"
       ry="86.873131" />
    <text
       xml:space="preserve"
       style="font-size:24px;font-style:normal;font-variant:normal;font-weight:normal;font-stretch:normal;fill:#000000;fill-opacity:1;stroke:none;font-family:Arial;-inkscape-font-specification:Arial"
       x="143.44167"
       y="147.2655"
       id="text6579"><tspan
         sodipodi:role="line"
         id="tspan6583" /></text>
    <ellipse
       style="color:#000000;display:inline;overflow:visible;visibility:visible;opacity:1;fill:#000000;fill-opacity:1;stroke:none;stroke-width:1.39999998;stroke-linecap:butt;stroke-linejoin:miter;stroke-miterlimit:4;stroke-dasharray:1.39999998, 67.19999886;stroke-dashoffset:0;stroke-opacity:1;marker:none;enable-background:accumulate"
       id="path3648"
       cx="378.30212"
       cy="254.08916"
       rx="119.70307"
       ry="43.689102" />
    <text
       xml:space="preserve"
       style="font-style:normal;font-variant:normal;font-weight:normal;font-stretch:normal;font-size:20px;line-height:125%;font-family:'Gillius ADF';-inkscape-font-specification:'Gillius ADF';letter-spacing:0px;word-spacing:0px;fill:#ffffff;fill-opacity:1;stroke:none;stroke-width:1px;stroke-linecap:butt;stroke-linejoin:miter;stroke-opacity:1"
       x="338.90619"
       y="256.362"
       id="text4528"
       sodipodi:linespacing="125%"><tspan
         sodipodi:role="line"
         id="tspan4530"
         x="338.90619"
         y="256.362">CLI Tool</tspan></text>
    <text
       xml:space="preserve"
       style="font-style:normal;font-variant:normal;font-weight:normal;font-stretch:normal;font-size:20px;line-height:125%;font-family:'Gillius ADF';-inkscape-font-specification:'Gillius ADF';letter-spacing:0px;word-spacing:0px;fill:#552200;fill-opacity:1;stroke:none;stroke-width:1px;stroke-linecap:butt;stroke-linejoin:miter;stroke-opacity:1"
       x="280.31732"
       y="180.60052"
       id="text4532"
       sodipodi:linespacing="125%"><tspan
         sodipodi:role="line"
         x="280.31732"
         y="180.60052"
         style="font-size:17.5px;fill:#552200"
         id="tspan5453">Service Configuration &amp;</tspan><tspan
         sodipodi:role="line"
         x="280.31732"
         y="202.47552"
         style="font-size:17.5px;fill:#552200"
         id="tspan4561">System Wrapper Script</tspan></text>
    <text
       xml:space="preserve"
       style="font-style:normal;font-variant:normal;font-weight:normal;font-stretch:normal;font-size:20px;line-height:125%;font-family:'Gillius ADF';-inkscape-font-specification:'Gillius ADF';letter-spacing:0px;word-spacing:0px;fill:#ffffff;fill-opacity:1;stroke:none;stroke-width:1px;stroke-linecap:butt;stroke-linejoin:miter;stroke-opacity:1"
       x="319.20822"
       y="123.02183"
       id="text4538"
       sodipodi:linespacing="125%"><tspan
         sodipodi:role="line"
         id="tspan4540"
         x="319.20822"
         y="123.02183">Webservice</tspan></text>
    <text
       xml:space="preserve"
       style="font-style:normal;font-variant:normal;font-weight:normal;font-stretch:normal;font-size:20px;line-height:125%;font-family:'Gillius ADF';-inkscape-font-specification:'Gillius ADF';letter-spacing:0px;word-spacing:0px;fill:#000000;fill-opacity:1;stroke:none;stroke-width:1px;stroke-linecap:butt;stroke-linejoin:miter;stroke-opacity:1"
       x="284.35797"
       y="67.968513"
       id="text4557"
       sodipodi:linespacing="125%"><tspan
         sodipodi:role="line"
         id="tspan4559"
         x="284.35797"
         y="67.968513">Web User Interface</tspan></text>
    <g
       transform="matrix(0.3611027,0,0,0.3611027,499.11895,360.24706)"
       id="g5942">
      <path
         inkscape:connector-curvature="0"
         d="m 394.235,333.585 -30.327,0 c -33.495,0 -60.653,-27.158 -60.653,-60.654 l 0,-19.484 c 13.418,-15.948 23.042,-34.812 29.024,-54.745 0.621,-3.36 3.855,-5.02 6.012,-7.33 11.611,-11.609 13.894,-31.2 5.185,-45.149 -1.186,-2.117 -3.322,-3.953 -3.201,-6.576 0,-17.784 0.089,-35.596 -0.023,-53.366 -0.476,-21.455 -6.608,-43.773 -21.65,-59.66 C 306.458,13.785 289.783,6.142 272.58,2.871 250.841,-1.276 228.098,-1.066 206.567,4.411 187.908,9.12 170.378,20.048 159.539,36.247 149.941,50.33 145.736,67.43 145.026,84.283 c -0.266,18.094 -0.061,36.233 -0.116,54.371 0.413,3.631 -2.667,6.088 -4.058,9.094 -8.203,14.881 -4.592,35.155 8.589,45.978 3.344,2.308 3.97,6.515 5.181,10.142 5.748,17.917 15.282,34.487 27.335,48.925 l 0,20.138 c 0,33.496 -27.157,60.654 -60.651,60.654 l -30.328,0 c 0,0 -54.964,15.158 -90.978,90.975 l 0,30.327 c 0,16.759 13.564,30.321 30.327,30.321 l 424.562,0 c 16.759,0 30.322,-13.562 30.322,-30.321 l 0,-30.327 c -36.012,-75.811 -90.976,-90.975 -90.976,-90.975 z"
         id="path5944" />
    </g>
    <path
       style="fill:#ff827f;fill-opacity:1;fill-rule:evenodd;stroke:#da1000;stroke-width:1.70000005;stroke-linecap:butt;stroke-linejoin:miter;stroke-miterlimit:4;stroke-dasharray:none;stroke-opacity:1;marker-start:url(#EmptyTriangleInL);marker-end:url(#EmptyTriangleOutL)"
       d="m 540.93667,297.77823 24.24366,60.10407"
       id="path6008"
       inkscape:connector-curvature="0" />
    <text
       xml:space="preserve"
       style="font-style:normal;font-variant:normal;font-weight:normal;font-stretch:normal;font-size:10px;line-height:125%;font-family:'Gillius ADF';-inkscape-font-specification:'Gillius ADF';letter-spacing:0px;word-spacing:0px;fill:#000000;fill-opacity:1;stroke:none;stroke-width:1px;stroke-linecap:butt;stroke-linejoin:miter;stroke-opacity:1"
       x="464.6702"
       y="77.564972"
       id="text9911"
       sodipodi:linespacing="125%"><tspan
         sodipodi:role="line"
         x="464.6702"
         y="77.564972"
         id="tspan9921">(client-side</tspan><tspan
         sodipodi:role="line"
         x="464.6702"
         y="90.064972"
         id="tspan9925">     XSL &amp; JS)</tspan></text>
    <text
       xml:space="preserve"
       style="font-style:normal;font-variant:normal;font-weight:normal;font-stretch:normal;font-size:10px;line-height:125%;font-family:'Gillius ADF';-inkscape-font-specification:'Gillius ADF';letter-spacing:0px;word-spacing:0px;fill:#ffffff;fill-opacity:1;stroke:none;stroke-width:1px;stroke-linecap:butt;stroke-linejoin:miter;stroke-opacity:1"
       x="428.61865"
       y="126.69202"
       id="text9911-5"
       sodipodi:linespacing="125%"><tspan
         sodipodi:role="line"
         x="428.61865"
         y="126.69202"
         id="tspan9950">RESTful API</tspan></text>
    <g
       transform="matrix(5.8141904,0,0,5.8141904,24.150648,346.67761)"
       id="g11868">
      <g
         id="g11870">
        <circle
           cx="16.047001"
           cy="7.8460002"
           r="0.963"
           id="circle11872" />
        <rect
           x="14.608"
           y="25.559"
           width="2.201"
           height="0.84600002"
           id="rect11874" />
        <rect
           x="14.608"
           y="26.846001"
           width="2.201"
           height="0.84600002"
           id="rect11876" />
        <rect
           x="14.608"
           y="27.993999"
           width="2.201"
           height="0.84600002"
           id="rect11878" />
        <path
           inkscape:connector-curvature="0"
           d="m 16.81,29.943 0,-0.661 -2.201,0 0,0.661 c -0.732,0.394 -1.231,1.166 -1.231,2.057 3.485,0 2.293,0 4.665,0 -0.003,-0.891 -0.501,-1.664 -1.233,-2.057 z"
           id="path11880" />
        <rect
           x="19.657"
           y="25.559"
           width="2.201"
           height="0.84600002"
           id="rect11882" />
        <rect
           x="19.657"
           y="26.846001"
           width="2.201"
           height="0.84600002"
           id="rect11884" />
        <rect
           x="19.657"
           y="27.993999"
           width="2.201"
           height="0.84600002"
           id="rect11886" />
        <path
           inkscape:connector-curvature="0"
           d="m 21.858,29.943 0,-0.661 -2.201,0 0,0.661 c -0.732,0.394 -1.232,1.166 -1.232,2.057 3.485,0 2.293,0 4.664,0 0.002,-0.891 -0.498,-1.664 -1.231,-2.057 z"
           id="path11888" />
        <circle
           cx="20.353001"
           cy="7.8460002"
           r="0.963"
           id="circle11890" />
        <path
           inkscape:connector-curvature="0"
           d="m 27.97,21.963 0.004,-0.001 -4.129,-8.167 -0.002,10e-4 0,-10e-4 -3.209,0 0,-2.031 2.235,0 0,-6.574 -2.708,0 0,-1.354 -1.792,0 0,-2.835 0.367,0 0,-1.001 -0.536,0 -0.537,0 0,1.001 0.367,0 0,2.835 -1.791,0 0,1.354 -2.708,0 0,6.573 2.236,0 0,2.031 -3.238,0 -2.462,3.034 -4.365,-3.954 0,-1.605 -0.88,0 0,2.251 -2.251,0 0,0.88 1.792,0 5.927,5.37 2.24,-2.746 0,6.617 2.031,0 0,1.522 2.199,0 0,-1.522 2.851,0 0,1.522 2.2,0 0,-1.522 2.031,0 0,-5.351 2.179,4.31 -0.695,1.648 0.812,0.342 0.875,-2.074 2.074,0.875 0.342,-0.812 -1.459,-0.616 z M 21.99,7.846 c 0,0.904 -0.733,1.637 -1.638,1.637 -0.905,0 -1.637,-0.733 -1.637,-1.637 0,-0.904 0.732,-1.637 1.637,-1.637 0.905,0 1.638,0.733 1.638,1.637 z m -7.58,0 c 0,-0.904 0.733,-1.637 1.637,-1.637 0.904,0 1.637,0.733 1.637,1.637 0,0.904 -0.733,1.637 -1.637,1.637 -0.904,0 -1.637,-0.733 -1.637,-1.637 z m 4.728,13.579 -4.895,0 0,-1.301 4.895,0 0,1.301 z m 0,-2.059 -4.895,0 0,-1.302 4.895,0 0,1.302 z m 0,-2.098 -4.895,0 0,-1.301 4.895,0 0,1.301 z M 18.2,10.79 l -1.834,0 0,-0.649 1.834,0 1.833,0 0,0.649 -1.833,0 z m 4.028,10.635 -2.356,0 0,-1.301 2.356,0 0,1.301 z m 0,-2.059 -2.356,0 0,-1.302 2.356,0 0,1.302 z m 0,-2.098 -2.356,0 0,-1.301 2.356,0 0,1.301 z"
           id="path11892" />
      </g>
    </g>
    <path
       style="fill:#ff827f;fill-opacity:1;fill-rule:evenodd;stroke:#da1000;stroke-width:2.23419642;stroke-linecap:butt;stroke-linejoin:miter;stroke-miterlimit:4;stroke-dasharray:none;stroke-opacity:1;marker-start:url(#EmptyTriangleInL-2)"
       d="m 190.20003,256.20083 -52.97939,68.1189"
       id="path6008-5"
       inkscape:connector-curvature="0" />
    <text
       xml:space="preserve"
       style="font-style:normal;font-variant:normal;font-weight:normal;font-stretch:normal;font-size:10px;line-height:125%;font-family:'Gillius ADF';-inkscape-font-specification:'Gillius ADF';letter-spacing:0px;word-spacing:0px;fill:#000000;fill-opacity:1;stroke:none;stroke-width:1px;stroke-linecap:butt;stroke-linejoin:miter;stroke-opacity:1"
       x="59.999992"
       y="300.93359"
       id="text14022"
       sodipodi:linespacing="125%"><tspan
         sodipodi:role="line"
         x="59.999992"
         y="300.93359"
         id="tspan14233">HTTP requests on</tspan><tspan
         sodipodi:role="line"
         x="59.999992"
         y="313.43359"
         id="tspan14237">RESTful URLs</tspan></text>
    <path
       style="fill:#ff827f;fill-opacity:1;fill-rule:evenodd;stroke:#da1000;stroke-width:2.23419642;stroke-linecap:butt;stroke-linejoin:miter;stroke-miterlimit:4;stroke-dasharray:none;stroke-opacity:1;marker-start:url(#EmptyTriangleInL-2-2)"
       d="M 153.27856,338.29169 204.07665,268.531"
       id="path6008-5-6"
       inkscape:connector-curvature="0" />
    <text
       xml:space="preserve"
       style="font-style:normal;font-variant:normal;font-weight:normal;font-stretch:normal;font-size:10px;line-height:125%;font-family:'Gillius ADF';-inkscape-font-specification:'Gillius ADF';letter-spacing:0px;word-spacing:0px;fill:#000000;fill-opacity:1;stroke:none;stroke-width:1px;stroke-linecap:butt;stroke-linejoin:miter;stroke-opacity:1"
       x="176.27754"
       y="321.06125"
       id="text14022-9"
       sodipodi:linespacing="125%"><tspan
         sodipodi:role="line"
         x="176.27754"
         y="321.06125"
         id="tspan15141">CLAM XML</tspan><tspan
         sodipodi:role="line"
         x="176.27754"
         y="333.56125"
         id="tspan15145">Response</tspan></text>
    <text
       xml:space="preserve"
       style="font-style:normal;font-variant:normal;font-weight:normal;font-stretch:normal;font-size:10px;line-height:125%;font-family:'Gillius ADF';-inkscape-font-specification:'Gillius ADF';letter-spacing:0px;word-spacing:0px;fill:#000000;fill-opacity:1;stroke:none;stroke-width:1px;stroke-linecap:butt;stroke-linejoin:miter;stroke-opacity:1"
       x="562.70612"
       y="319.63269"
       id="text14022-99"
       sodipodi:linespacing="125%"><tspan
         sodipodi:role="line"
         x="562.70612"
         y="319.63269"
         id="tspan15189">User interface</tspan><tspan
         sodipodi:role="line"
         x="562.70612"
         y="332.13269"
         id="tspan15193">interaction</tspan></text>
  </g>
</svg>
